<svg width="64" height="64" viewBox="0 0 13 13" xmlns="http://www.w3.org/2000/svg">
  <path fill="#f6ac0f" d="M 11.396772,1 2.600538,1 C 1.7209146,1 1,1.72108 1,2.6009 l 0,8.80089 C 1,12.27892 1.7209146,13 2.600538,13 l 8.798924,0 C 12.287155,13 13,12.27892 13,11.3991 L 13,2.6009 C 12.99731,1.72108 12.276395,1 11.396772,1 Z"/>
  
  <path fill="white" d="M 10.486,10.098 Q 9.783,10.440 9.027,10.612 Q 8.270,10.782 7.464,10.782 Q 5.642,10.782 4.578,9.763 Q 3.514,8.745 3.514,7.002 Q 3.514,5.240 4.597,4.229 Q 5.681,3.218 7.567,3.218 Q 8.294,3.218 8.959,3.355 Q 9.627,3.491 10.217,3.760 L 10.217,5.268 Q 9.608,4.923 9.005,4.752 Q 8.402,4.580 7.795,4.580 Q 6.673,4.580 6.066,5.209 Q 5.458,5.835 5.458,7.002 Q 5.458,8.159 6.044,8.790 Q 6.630,9.420 7.708,9.420 Q 8.002,9.420 8.253,9.384 Q 8.505,9.346 8.705,9.268 L 8.705,7.852 L 7.556,7.852 L 7.556,6.591 L 10.486,6.591 L 10.486,10.098 Z"/>
</svg>